# xmcd
#
# Track frame offsets:
#	150
#	18423
#	41075
#	60277
#
# Disc length: 1066 seconds
#
# Revision: 0
# Processed by: cddbd v1.5.1PL0 Copyright (c) Steve Scherf et al.
# Submitted via: dBpowerAMP V4.0
#
DISCID=28042804
DTITLE=UPSIDEDOWN - 因為愛
DYEAR=2003
DGENRE=Christian
TTITLE0=讚美我主
TTITLE1=足夠
TTITLE2=因為愛
TTITLE3=始終相信愛
EXTD=
EXTT0=
EXTT1=
EXTT2=
EXTT3=
PLAYORDER=
